<?xml version="1.0" standalone="no"?>
<!DOCTYPE svg PUBLIC "-//W3C//DTD SVG 20010904//EN"
 "http://www.w3.org/TR/2001/REC-SVG-20010904/DTD/svg10.dtd">
<svg version="1.0" xmlns="http://www.w3.org/2000/svg"
 width="300.000000pt" height="300.000000pt" viewBox="0 0 300.000000 300.000000"
 preserveAspectRatio="xMidYMid meet">
<metadata>
Created by potrace 1.11, written by Peter Selinger 2001-2013
</metadata>
<g transform="translate(0.000000,300.000000) scale(0.100000,-0.100000)"
fill="#000000" stroke="none">
<path d="M1430 2980 c15 -15 18 -25 11 -43 -6 -14 -6 -29 0 -38 16 -25 9 -48
-18 -61 -15 -7 -32 -26 -37 -41 -9 -24 -6 -31 17 -53 32 -29 31 -27 12 -65
-14 -27 -14 -33 1 -65 16 -32 15 -36 -1 -54 -14 -15 -16 -29 -10 -69 6 -44 4
-52 -12 -57 -10 -3 -45 -19 -78 -34 -101 -48 -130 -90 -82 -123 18 -13 19 -16
5 -16 -16 -1 -48 -36 -48 -53 0 -4 10 -16 22 -28 18 -16 19 -20 6 -20 -24 0
-33 -38 -14 -59 10 -11 16 -36 16 -70 0 -65 -20 -86 -120 -125 -119 -47 -192
-127 -233 -253 -46 -143 -43 -242 13 -354 59 -121 185 -202 370 -240 170 -35
391 -11 516 54 36 19 104 90 133 138 29 50 61 145 61 184 0 69 -32 210 -58
258 -33 61 -140 169 -196 198 -57 29 -95 67 -105 107 -11 39 1 82 23 82 9 0
21 10 27 22 10 19 9 24 -10 36 l-22 15 23 11 c31 16 35 50 7 70 -19 13 -20 16
-6 22 33 12 31 43 -7 80 -19 19 -39 34 -44 34 -5 0 -23 14 -40 30 -18 17 -38
30 -46 30 -24 0 -29 19 -12 45 20 31 20 49 0 80 -14 22 -14 25 4 43 34 34 36
59 7 86 -28 26 -28 59 0 70 17 6 20 42 5 51 -5 3 -10 17 -10 31 0 19 6 26 30
30 50 10 51 67 3 112 -18 17 -36 22 -74 22 -49 0 -49 0 -29 -20z m69 -579 c21
-14 -30 -25 -66 -16 -26 7 -26 8 -8 15 27 12 57 12 74 1z m158 -105 c-6 -17
-347 -15 -347 3 0 3 79 7 175 7 129 2 175 -1 172 -10z m-204 -43 c-7 -2 -19
-2 -25 0 -7 3 -2 5 12 5 14 0 19 -2 13 -5z m135 -42 c13 0 22 -6 20 -12 -3 -8
-40 -11 -113 -10 -123 2 -202 10 -186 20 9 6 194 7 279 2z m62 -11 c0 -5 -7
-10 -16 -10 -8 0 -12 5 -9 10 3 6 10 10 16 10 5 0 9 -4 9 -10z m-97 -79 c15
-1 27 -6 27 -12 0 -9 -34 -10 -122 -5 -68 4 -131 7 -140 7 -10 0 -18 5 -18 10
0 6 42 8 113 5 61 -2 124 -5 140 -5z m-283 -41 c0 -5 -2 -10 -4 -10 -3 0 -8 5
-11 10 -3 6 -1 10 4 10 6 0 11 -4 11 -10z m235 -4 c17 -1 -16 -4 -72 -4 -57
-1 -103 1 -103 6 0 6 105 6 175 -2z m-7 -34 l72 -2 0 -32 c0 -41 39 -91 98
-125 81 -46 185 -146 209 -199 48 -109 57 -162 46 -259 -12 -112 -45 -183
-117 -253 -49 -48 -56 -51 -181 -83 -108 -27 -145 -33 -219 -30 -49 1 -98 7
-108 12 -10 5 -44 14 -75 20 -52 9 -87 22 -173 62 -43 21 -139 123 -159 170
-44 102 -43 211 1 349 18 55 34 82 70 119 51 52 76 67 162 100 82 30 116 62
116 108 0 21 2 40 5 43 5 5 59 5 253 0z"/>
<path d="M2215 2420 c4 -6 11 -8 16 -5 14 9 11 15 -7 15 -8 0 -12 -5 -9 -10z"/>
<path d="M2392 2375 c-14 -29 2 -34 18 -6 12 24 13 31 2 31 -5 0 -14 -11 -20
-25z"/>
<path d="M695 2360 c3 -5 13 -10 21 -10 8 0 12 5 9 10 -3 6 -13 10 -21 10 -8
0 -12 -4 -9 -10z"/>
<path d="M2194 2356 c-10 -8 -16 -17 -12 -21 7 -7 48 16 48 27 0 12 -14 9 -36
-6z"/>
<path d="M610 2331 c0 -12 6 -21 15 -21 8 0 15 4 15 9 0 5 -7 14 -15 21 -13
10 -15 9 -15 -9z"/>
<path d="M2337 2323 c-4 -3 -7 -13 -7 -21 0 -12 3 -12 15 -2 8 7 15 16 15 21
0 11 -14 12 -23 2z"/>
<path d="M2201 2287 c-6 -8 -8 -17 -4 -20 7 -8 33 11 33 24 0 13 -16 11 -29
-4z"/>
<path d="M590 2266 c0 -17 36 -40 43 -29 3 5 -6 16 -19 26 -20 15 -24 16 -24
3z"/>
<path d="M2265 2244 c-20 -16 -25 -24 -14 -24 21 0 53 24 48 38 -2 6 -17 0
-34 -14z"/>
<path d="M2435 2260 c-3 -5 1 -10 10 -10 9 0 13 5 10 10 -3 6 -8 10 -10 10 -2
0 -7 -4 -10 -10z"/>
<path d="M515 2250 c3 -5 10 -10 16 -10 5 0 9 5 9 10 0 6 -7 10 -16 10 -8 0
-12 -4 -9 -10z"/>
<path d="M2382 2225 c-21 -16 -30 -35 -14 -35 15 1 44 29 40 40 -2 6 -11 5
-26 -5z"/>
<path d="M668 2189 c18 -18 35 -30 37 -27 8 7 -42 58 -56 58 -7 0 2 -14 19
-31z"/>
<path d="M2214 2196 c-10 -8 -16 -18 -12 -21 4 -4 15 0 24 9 21 22 13 30 -12
12z"/>
<path d="M585 2190 c3 -5 13 -10 21 -10 8 0 12 5 9 10 -3 6 -13 10 -21 10 -8
0 -12 -4 -9 -10z"/>
<path d="M2675 2190 c-3 -5 3 -10 15 -10 12 0 18 5 15 10 -3 6 -10 10 -15 10
-5 0 -12 -4 -15 -10z"/>
<path d="M410 2175 c0 -8 2 -15 4 -15 2 0 11 -3 20 -6 23 -9 20 13 -4 26 -16
9 -20 8 -20 -5z"/>
<path d="M2474 2175 c-18 -14 -18 -14 3 -15 23 0 39 15 25 24 -5 3 -18 -1 -28
-9z"/>
<path d="M530 2171 c0 -5 15 -19 34 -30 19 -12 37 -28 40 -36 3 -8 16 -15 29
-15 25 0 43 -16 62 -53 6 -12 18 -23 27 -25 31 -6 -29 87 -60 95 -15 3 -44 21
-65 39 -36 33 -67 44 -67 25z"/>
<path d="M2260 2163 c-8 -3 -26 -17 -39 -29 -30 -30 -5 -33 29 -4 13 11 27 20
32 20 4 0 8 5 8 10 0 11 -7 12 -30 3z"/>
<path d="M2310 2155 c-7 -9 -10 -18 -7 -22 8 -7 37 15 37 28 0 14 -16 11 -30
-6z"/>
<path d="M2598 2152 c-40 -24 -34 -35 8 -17 20 8 38 15 40 15 2 0 4 5 4 10 0
14 -20 11 -52 -8z"/>
<path d="M630 2145 c0 -8 8 -15 19 -15 10 0 24 -7 31 -15 7 -8 18 -15 24 -15
12 1 -53 60 -66 60 -4 0 -8 -7 -8 -15z"/>
<path d="M250 2130 c0 -5 5 -10 10 -10 6 0 10 5 10 10 0 6 -4 10 -10 10 -5 0
-10 -4 -10 -10z"/>
<path d="M2265 2118 c-27 -15 -85 -80 -79 -89 2 -4 -4 -12 -13 -18 -10 -5 -14
-13 -10 -17 4 -5 17 -3 27 4 11 7 27 12 35 12 8 0 25 11 36 24 12 13 33 27 47
31 34 8 112 65 89 65 -9 0 -24 -8 -34 -18 -10 -10 -37 -24 -60 -30 -23 -7 -49
-22 -57 -33 -9 -14 -22 -19 -38 -17 -22 4 -22 5 -3 13 22 9 89 74 83 80 -2 2
-12 -1 -23 -7z"/>
<path d="M510 2112 c0 -10 21 -32 32 -32 16 0 8 19 -12 30 -11 6 -20 7 -20 2z"/>
<path d="M2489 2100 c-9 -5 -37 -16 -64 -25 -26 -9 -68 -31 -94 -49 -26 -18
-64 -39 -86 -46 -50 -16 -132 -57 -139 -69 -4 -5 -2 -12 3 -16 10 -5 39 7 71
31 8 6 42 21 74 33 33 12 76 36 97 52 21 17 66 41 100 55 34 13 64 26 66 28 9
9 -13 14 -28 6z"/>
<path d="M315 2090 c10 -16 85 -52 98 -47 7 2 -11 16 -40 30 -57 29 -67 32
-58 17z"/>
<path d="M440 2072 c0 -5 9 -12 21 -15 13 -3 19 -1 16 6 -5 15 -37 22 -37 9z"/>
<path d="M560 2060 c0 -5 16 -12 35 -16 19 -3 35 -10 35 -15 0 -5 8 -13 18
-16 9 -4 24 -15 32 -24 18 -21 60 -35 60 -20 0 6 -7 11 -15 11 -8 0 -22 11
-31 25 -9 14 -21 25 -27 25 -5 0 -15 6 -21 14 -13 16 -86 29 -86 16z"/>
<path d="M512 2023 c2 -10 14 -19 28 -21 14 -2 39 -15 57 -28 17 -13 40 -24
51 -24 11 0 30 -8 43 -19 13 -10 42 -21 64 -25 l40 -6 -24 20 c-13 11 -30 20
-38 20 -8 0 -21 7 -29 15 -9 8 -29 15 -45 15 -16 0 -29 4 -29 8 0 12 -56 42
-79 42 -12 0 -21 5 -21 10 0 6 -5 10 -11 10 -6 0 -9 -8 -7 -17z"/>
<path d="M2515 2030 c-8 -13 15 -13 35 0 12 8 11 10 -7 10 -12 0 -25 -4 -28
-10z"/>
<path d="M260 2023 c0 -8 47 -33 62 -33 17 0 7 17 -17 28 -30 14 -45 15 -45 5z"/>
<path d="M430 2015 c0 -7 8 -15 18 -18 9 -2 25 -8 35 -12 33 -14 17 11 -18 27
-26 12 -35 12 -35 3z"/>
<path d="M2423 1993 c-18 -9 -33 -20 -33 -25 0 -12 11 -9 60 17 51 27 26 34
-27 8z"/>
<path d="M2640 1985 c-15 -8 -19 -14 -10 -15 26 0 60 12 60 21 0 13 -21 10
-50 -6z"/>
<path d="M2860 1980 c0 -5 5 -10 11 -10 5 0 7 5 4 10 -3 6 -8 10 -11 10 -2 0
-4 -4 -4 -10z"/>
<path d="M380 1964 c0 -7 12 -16 28 -20 64 -14 94 -28 133 -60 22 -19 51 -34
64 -34 12 0 28 -7 35 -15 7 -8 19 -15 26 -15 8 0 23 -5 33 -12 21 -13 56 -4
46 12 -4 6 -10 8 -15 5 -4 -3 -28 6 -52 20 -23 14 -51 25 -60 25 -10 0 -32 13
-50 29 -18 15 -51 34 -73 41 -22 7 -57 18 -77 25 -32 11 -38 11 -38 -1z"/>
<path d="M2760 1954 l-25 -15 35 6 c39 6 66 25 35 25 -11 -1 -31 -8 -45 -16z"/>
<path d="M2955 1960 c-3 -5 -2 -10 4 -10 5 0 13 5 16 10 3 6 2 10 -4 10 -5 0
-13 -4 -16 -10z"/>
<path d="M530 1945 c14 -8 33 -14 42 -15 9 0 26 -12 37 -26 11 -14 28 -25 38
-24 37 4 54 -1 73 -20 20 -20 40 -19 40 0 0 16 -57 40 -93 40 -26 0 -36 6 -45
24 -7 16 -22 25 -49 29 -59 10 -71 8 -43 -8z"/>
<path d="M760 1952 c0 -13 23 -32 38 -32 7 0 12 5 10 12 -5 13 -48 31 -48 20z"/>
<path d="M2335 1945 c-70 -25 -75 -27 -75 -35 0 -4 -21 -10 -46 -14 -48 -6
-108 -41 -99 -56 3 -5 20 -1 38 10 17 11 52 22 77 26 25 4 52 12 60 19 8 7 32
20 53 28 20 9 37 21 37 26 0 6 -1 11 -2 10 -2 0 -21 -7 -43 -14z"/>
<path d="M2540 1950 c0 -5 7 -10 15 -10 8 0 15 5 15 10 0 6 -7 10 -15 10 -8 0
-15 -4 -15 -10z"/>
<path d="M2446 1914 c-28 -13 -64 -24 -80 -24 -17 0 -42 -9 -56 -20 -14 -11
-39 -20 -56 -20 -36 0 -124 -36 -124 -50 0 -13 1 -13 45 6 21 9 61 18 89 20
31 3 59 12 71 24 12 11 31 20 42 20 27 0 133 49 133 61 0 13 -9 11 -64 -17z"/>
<path d="M2670 1920 c0 -5 6 -10 14 -10 8 0 18 5 21 10 3 6 -3 10 -14 10 -12
0 -21 -4 -21 -10z"/>
<path d="M300 1912 c0 -12 17 -19 89 -38 30 -8 61 -24 68 -34 8 -11 21 -20 30
-20 9 0 35 -9 57 -19 23 -10 62 -22 89 -26 26 -3 47 -10 47 -16 0 -5 10 -9 22
-9 20 0 20 1 4 19 -10 11 -37 21 -67 24 -28 4 -56 10 -63 15 -6 6 -26 13 -45
17 -18 4 -41 14 -50 24 -22 21 -56 37 -106 49 -22 5 -48 13 -57 17 -10 4 -18
3 -18 -3z"/>
<path d="M2591 1894 c-19 -8 -32 -17 -29 -20 9 -9 71 11 76 24 5 15 -5 15 -47
-4z"/>
<path d="M2860 1890 c-13 -8 -12 -10 3 -10 9 0 17 5 17 10 0 12 -1 12 -20 0z"/>
<path d="M2520 1870 c0 -5 7 -10 16 -10 8 0 12 5 9 10 -3 6 -10 10 -16 10 -5
0 -9 -4 -9 -10z"/>
<path d="M2745 1872 c-33 -7 -42 -22 -13 -22 15 0 30 5 33 11 9 14 4 16 -20
11z"/>
<path d="M2444 1851 c-17 -4 -45 -15 -64 -24 -18 -10 -41 -17 -51 -17 -10 0
-34 -9 -53 -19 -19 -11 -36 -17 -39 -15 -8 8 -87 -18 -87 -29 0 -5 10 -6 23
-2 12 4 40 10 62 14 22 4 49 12 60 18 11 6 37 13 58 17 20 4 37 11 37 16 0 5
20 12 45 15 48 8 98 35 60 34 -11 -1 -34 -4 -51 -8z"/>
<path d="M2619 1836 c-31 -11 -62 -26 -70 -32 -8 -7 -36 -14 -64 -16 -27 -3
-77 -14 -110 -26 -33 -12 -97 -30 -142 -39 -86 -19 -115 -40 -40 -30 91 12
164 30 220 55 32 15 69 25 83 24 14 -1 58 14 98 33 41 19 79 35 85 35 6 0 11
5 11 10 0 13 -4 12 -71 -14z"/>
<path d="M350 1825 c7 -8 19 -15 27 -15 13 0 13 3 3 15 -7 8 -19 15 -27 15
-13 0 -13 -3 -3 -15z"/>
<path d="M255 1800 c3 -5 8 -10 11 -10 2 0 4 5 4 10 0 6 -5 10 -11 10 -5 0 -7
-4 -4 -10z"/>
<path d="M285 1800 c-5 -8 39 -15 48 -7 1 1 16 -10 32 -25 16 -16 46 -29 69
-33 23 -4 55 -10 71 -15 30 -9 49 -13 139 -26 35 -5 47 -4 42 5 -4 6 -1 11 8
11 22 0 20 19 -1 26 -10 3 -25 8 -33 12 -8 3 -26 6 -40 8 -65 6 -118 19 -145
36 -33 20 -45 22 -45 9 0 -18 67 -47 139 -59 92 -15 130 -35 51 -26 -30 3 -77
12 -104 20 -27 8 -60 14 -72 14 -12 0 -29 6 -36 13 -19 19 -78 47 -99 47 -10
0 -21 -4 -24 -10z"/>
<path d="M178 1793 c12 -2 32 -2 45 0 12 2 2 4 -23 4 -25 0 -35 -2 -22 -4z"/>
<path d="M265 1770 c-4 -6 3 -10 14 -10 25 0 27 6 6 13 -8 4 -17 2 -20 -3z"/>
<path d="M2670 1760 c-12 -8 -11 -10 8 -10 12 0 22 5 22 10 0 13 -11 13 -30 0z"/>
<path d="M2595 1750 c-8 -13 15 -13 35 0 12 8 11 10 -7 10 -12 0 -25 -4 -28
-10z"/>
<path d="M2525 1728 c-30 -10 -96 -23 -170 -33 -22 -3 -78 -10 -125 -17 -47
-6 -89 -15 -95 -21 -7 -6 9 -7 45 -2 30 4 91 11 135 16 155 17 245 39 245 60
0 5 -1 9 -2 8 -2 0 -16 -5 -33 -11z"/>
<path d="M185 1712 c15 -16 85 -27 85 -13 0 6 -6 11 -14 11 -7 0 -29 3 -47 6
-24 5 -31 3 -24 -4z"/>
<path d="M2828 1713 c6 -2 18 -2 25 0 6 3 1 5 -13 5 -14 0 -19 -2 -12 -5z"/>
<path d="M2905 1710 c-7 -11 9 -11 45 0 24 8 24 8 -7 9 -17 1 -35 -3 -38 -9z"/>
<path d="M298 1703 c6 -2 18 -2 25 0 6 3 1 5 -13 5 -14 0 -19 -2 -12 -5z"/>
<path d="M350 1700 c0 -11 65 -22 110 -19 20 2 42 -1 50 -6 8 -6 38 -10 65
-10 28 0 62 -4 78 -9 16 -5 27 -4 27 2 0 14 -84 35 -110 27 -12 -4 -34 -2 -48
3 -36 14 -172 23 -172 12z"/>
<path d="M2820 1690 c0 -5 7 -10 16 -10 8 0 12 5 9 10 -3 6 -10 10 -16 10 -5
0 -9 -4 -9 -10z"/>
<path d="M2610 1680 c-12 -8 -10 -10 8 -10 13 0 20 4 17 10 -7 12 -6 12 -25 0z"/>
<path d="M2650 1680 c0 -13 20 -13 40 0 12 8 9 10 -12 10 -16 0 -28 -4 -28
-10z"/>
<path d="M2720 1680 c0 -5 14 -10 31 -10 17 0 28 4 24 10 -3 6 -17 10 -31 10
-13 0 -24 -4 -24 -10z"/>
<path d="M2505 1673 c-22 -2 -47 -7 -55 -10 -8 -4 -40 -8 -70 -9 -126 -4 -237
-23 -219 -37 2 -2 42 1 89 6 47 5 109 8 139 8 34 -1 63 4 78 14 13 9 33 15 46
14 39 -4 58 1 52 11 -3 6 -9 9 -13 8 -4 -1 -25 -3 -47 -5z"/>
<path d="M390 1651 c0 -18 266 -36 292 -20 13 8 -79 19 -162 19 -36 0 -80 2
-97 4 -18 3 -33 1 -33 -3z"/>
<path d="M190 1632 c0 -9 99 -23 109 -15 10 7 -10 14 -58 20 -33 4 -51 2 -51
-5z"/>
<path d="M2628 1633 c-30 -8 -20 -24 10 -17 43 10 62 24 32 23 -14 -1 -33 -3
-42 -6z"/>
<path d="M365 1619 c17 -7 35 -16 42 -21 15 -12 253 -18 253 -6 0 14 -49 20
-97 11 -34 -6 -64 -5 -103 5 -30 8 -71 16 -90 18 l-35 4 30 -11z"/>
<path d="M2550 1620 c-21 -6 -22 -8 -8 -14 9 -4 24 -3 34 2 22 12 5 21 -26 12z"/>
<path d="M2855 1620 c3 -5 10 -10 16 -10 5 0 9 5 9 10 0 6 -7 10 -16 10 -8 0
-12 -4 -9 -10z"/>
<path d="M2407 1614 c-3 -4 -43 -8 -89 -9 -96 -4 -169 -16 -168 -29 0 -11 57
-12 83 -1 10 4 41 5 70 2 30 -2 71 1 97 9 25 8 60 14 78 14 17 0 32 5 32 10 0
11 -93 14 -103 4z"/>
<path d="M323 1593 c9 -2 23 -2 30 0 6 3 -1 5 -18 5 -16 0 -22 -2 -12 -5z"/>
<path d="M2700 1573 c-8 -2 -21 -7 -29 -9 -8 -2 -11 -7 -8 -10 8 -8 77 7 77
17 0 10 -16 11 -40 2z"/>
<path d="M210 1556 c0 -9 7 -16 16 -16 17 0 14 22 -4 28 -7 2 -12 -3 -12 -12z"/>
<path d="M583 1555 c-24 -10 -41 -11 -65 -4 -38 11 -118 2 -118 -13 0 -7 17
-8 43 -5 23 3 58 1 78 -5 28 -8 42 -7 65 5 16 8 42 13 57 10 32 -6 37 12 5 21
-29 7 -27 8 -65 -9z"/>
<path d="M272 1551 c-11 -7 -10 -10 3 -15 25 -9 105 -7 105 3 0 18 -83 28
-108 12z"/>
<path d="M2590 1550 c0 -5 9 -10 19 -10 11 0 23 5 26 10 4 6 -5 10 -19 10 -14
0 -26 -4 -26 -10z"/>
<path d="M2185 1540 c-37 -7 -19 -20 27 -20 18 0 42 0 53 0 82 0 200 10 202
17 3 9 -234 12 -282 3z"/>
<path d="M2510 1540 c0 -5 15 -10 33 -9 27 0 29 2 12 9 -28 12 -45 12 -45 0z"/>
<path d="M285 1496 l-90 -12 80 -7 c86 -8 115 -4 115 19 0 8 -3 13 -7 13 -5
-1 -48 -7 -98 -13z"/>
<path d="M497 1503 c-132 -5 -116 -23 21 -24 l107 0 -53 -15 c-29 -7 -74 -14
-100 -13 -97 0 -202 -16 -202 -31 0 -13 71 -13 106 1 16 5 65 12 109 13 45 2
91 9 103 15 11 6 36 11 54 11 31 1 32 1 14 15 -19 14 -19 15 6 15 15 0 30 5
33 10 4 6 -14 9 -47 8 -29 -1 -97 -4 -151 -5z"/>
<path d="M2770 1500 c0 -5 9 -10 20 -10 11 0 20 5 20 10 0 6 -9 10 -20 10 -11
0 -20 -4 -20 -10z"/>
<path d="M2142 1489 c2 -7 15 -16 29 -20 14 -4 17 -7 7 -8 -9 -1 -20 -5 -23
-11 -4 -6 12 -10 41 -10 40 0 45 2 34 15 -11 13 -2 15 76 16 49 1 140 1 202 0
66 -2 112 1 112 7 0 12 -224 27 -240 17 -14 -9 -184 -7 -219 2 -17 4 -22 2
-19 -8z"/>
<path d="M2635 1491 c-3 -2 -2 -8 1 -12 7 -12 84 -12 84 0 0 9 -77 20 -85 12z"/>
<path d="M2845 1480 c3 -5 13 -10 21 -10 8 0 14 5 14 10 0 6 -9 10 -21 10 -11
0 -17 -4 -14 -10z"/>
<path d="M605 1436 c-11 -9 -37 -16 -59 -16 -21 0 -56 -5 -77 -12 -44 -13 -54
-34 -11 -23 15 4 51 9 81 12 30 3 65 12 78 20 13 9 32 13 44 10 13 -3 19 -1
16 6 -6 18 -50 20 -72 3z"/>
<path d="M2258 1437 c15 -18 100 -38 148 -36 22 2 45 -1 52 -5 15 -9 112 4
112 15 0 5 -43 6 -95 4 -76 -3 -108 0 -153 15 -68 23 -78 24 -64 7z"/>
<path d="M225 1420 c-3 -5 3 -10 15 -10 12 0 18 5 15 10 -3 6 -10 10 -15 10
-5 0 -12 -4 -15 -10z"/>
<path d="M2143 1423 c4 -6 27 -13 52 -16 26 -2 56 -13 68 -24 25 -23 48 -30
127 -43 30 -4 66 -11 80 -15 23 -7 24 -6 9 9 -9 9 -31 19 -50 21 -98 12 -121
18 -150 42 -23 20 -46 28 -86 31 -36 3 -54 1 -50 -5z"/>
<path d="M2635 1400 c3 -5 13 -10 21 -10 8 0 12 5 9 10 -3 6 -13 10 -21 10 -8
0 -12 -4 -9 -10z"/>
<path d="M630 1380 c-30 -11 -73 -20 -95 -20 -24 0 -62 -11 -91 -24 -53 -27
-40 -34 22 -13 51 18 157 30 150 18 -4 -5 -32 -15 -64 -22 -31 -6 -66 -18 -77
-25 -11 -8 -36 -14 -56 -14 -20 0 -42 -6 -48 -14 -6 -7 -31 -21 -56 -31 -25
-9 -45 -21 -45 -27 0 -5 3 -8 8 -6 65 32 135 57 180 63 23 4 42 10 42 15 0 4
21 13 48 20 26 6 64 18 85 26 20 8 47 14 58 14 18 0 17 -3 -9 -25 -17 -14 -37
-25 -45 -25 -19 0 -105 -38 -112 -50 -8 -13 -11 -14 79 20 88 32 120 57 110
83 -5 13 -14 16 -45 11 -53 -9 -49 3 6 17 25 6 45 15 45 20 0 14 -30 10 -90
-11z"/>
<path d="M330 1379 c-92 -17 -110 -21 -105 -29 2 -4 24 -4 47 1 24 5 64 11 91
14 26 4 47 10 47 16 0 10 -15 10 -80 -2z"/>
<path d="M2123 1377 c2 -7 17 -15 33 -18 l29 -7 -27 -1 c-37 -1 -36 -21 1 -21
16 0 36 -7 45 -15 8 -8 19 -15 24 -15 4 0 19 -11 32 -25 13 -14 33 -25 45 -25
12 0 43 -7 69 -16 26 -9 50 -14 53 -10 3 3 -3 8 -13 11 -10 4 -27 11 -36 16
-10 5 -26 9 -37 9 -26 0 -51 10 -51 21 0 12 57 11 65 -1 3 -5 19 -10 35 -10
16 0 41 -5 55 -12 14 -6 28 -8 32 -5 11 12 -30 36 -62 37 -16 0 -39 7 -50 16
-12 9 -30 12 -47 9 -21 -5 -30 -1 -43 18 -21 33 -162 73 -152 44z m129 -51 c9
-14 6 -16 -19 -10 -12 3 -24 13 -27 21 -5 11 -1 13 17 7 12 -4 25 -12 29 -18z"/>
<path d="M2850 1379 c28 -5 48 -5 54 1 7 7 -9 10 -44 9 l-55 -1 45 -9z"/>
<path d="M2530 1331 c0 -16 49 -26 63 -12 8 8 6 11 -10 11 -12 0 -28 3 -37 6
-9 3 -16 1 -16 -5z"/>
<path d="M2610 1321 c0 -10 60 -24 68 -16 8 8 0 12 -35 18 -18 4 -33 3 -33 -2z"/>
<path d="M2120 1301 c0 -5 13 -11 28 -14 16 -3 44 -20 62 -37 54 -51 70 -59
104 -53 22 3 36 0 45 -11 7 -9 21 -16 30 -16 12 1 8 8 -13 26 -23 20 -37 25
-62 21 -24 -4 -38 0 -55 16 -53 51 -93 77 -115 77 -13 0 -24 -4 -24 -9z"/>
<path d="M693 1266 c-23 -13 -55 -33 -71 -45 -17 -11 -37 -21 -46 -21 -10 0
-28 -11 -42 -25 -14 -14 -27 -25 -30 -25 -3 0 -24 -9 -48 -20 -48 -21 -72 -45
-57 -54 5 -4 12 -2 15 3 8 13 84 51 101 51 8 0 19 9 24 19 6 10 24 24 41 30
17 5 43 19 58 29 15 11 38 23 52 27 29 9 69 37 70 48 0 12 -23 6 -67 -17z"/>
<path d="M2780 1280 c0 -5 12 -10 28 -9 24 0 25 1 7 9 -27 12 -35 12 -35 0z"/>
<path d="M2095 1260 c-3 -6 15 -19 42 -31 26 -11 59 -31 73 -44 25 -24 51 -33
98 -34 12 -1 32 -12 44 -26 16 -18 32 -25 59 -25 26 0 47 -8 69 -26 42 -36 54
-20 12 17 -24 21 -42 29 -70 29 -28 0 -44 7 -59 24 -14 16 -36 25 -72 30 -36
5 -55 13 -64 27 -6 12 -36 32 -66 45 -62 28 -58 27 -66 14z"/>
<path d="M2530 1252 c0 -17 29 -34 47 -28 9 4 13 10 7 15 -15 14 -54 23 -54
13z"/>
<path d="M2940 1251 c0 -9 52 -22 59 -15 6 6 -1 11 -31 18 -16 3 -28 2 -28 -3z"/>
<path d="M2076 1232 c-3 -5 15 -18 40 -30 25 -13 48 -32 53 -46 9 -22 39 -42
49 -32 2 3 -11 21 -29 41 -37 40 -105 80 -113 67z"/>
<path d="M714 1191 c-33 -21 -76 -44 -96 -52 -21 -7 -38 -17 -38 -21 0 -13 33
-9 54 7 11 8 25 15 32 15 15 0 123 72 124 83 0 14 -19 6 -76 -32z"/>
<path d="M2679 1207 c15 -19 41 -23 41 -7 0 6 -4 10 -9 10 -5 0 -18 3 -28 7
-16 6 -16 5 -4 -10z"/>
<path d="M435 1198 c-30 -11 -58 -28 -53 -34 4 -4 107 32 115 40 10 9 -28 6
-62 -6z"/>
<path d="M2034 1191 c3 -4 18 -11 33 -14 16 -3 37 -19 48 -37 14 -21 33 -34
63 -42 23 -6 51 -21 61 -34 10 -13 23 -24 28 -24 5 0 30 -13 56 -30 26 -16 53
-30 60 -30 17 0 -42 46 -78 62 -16 7 -38 22 -48 35 -10 12 -36 28 -58 35 -22
6 -49 23 -61 37 -11 14 -29 31 -41 38 -25 14 -71 17 -63 4z"/>
<path d="M2475 1190 c3 -5 13 -10 21 -10 8 0 14 5 14 10 0 6 -9 10 -21 10 -11
0 -17 -4 -14 -10z"/>
<path d="M754 1152 c-21 -16 -45 -36 -53 -45 -7 -9 -21 -17 -31 -17 -26 0 -94
-30 -103 -46 -4 -8 -14 -14 -22 -14 -14 0 -45 -37 -45 -54 0 -5 10 -1 23 10
50 45 124 84 161 84 25 1 149 110 125 110 -9 0 -34 -13 -55 -28z"/>
<path d="M2022 1153 c2 -10 13 -19 25 -21 12 -2 32 -19 43 -38 15 -23 29 -34
46 -34 15 0 24 -6 24 -15 0 -8 5 -15 11 -15 19 0 5 45 -16 48 -11 2 -36 21
-55 42 -41 45 -84 63 -78 33z"/>
<path d="M2410 1162 c0 -16 40 -26 53 -13 8 8 7 11 -5 11 -9 0 -23 3 -32 6 -9
3 -16 1 -16 -4z"/>
<path d="M810 1114 c-25 -26 -58 -52 -75 -60 -39 -18 -80 -53 -71 -61 3 -4 20
3 36 15 16 12 34 22 40 22 14 0 130 109 130 122 0 17 -17 6 -60 -38z"/>
<path d="M2490 1150 c0 -13 41 -30 54 -22 5 2 -2 11 -15 18 -29 16 -39 17 -39
4z"/>
<path d="M265 1134 c-19 -16 -19 -16 5 -9 14 4 32 11 40 16 12 7 11 8 -5 8
-11 0 -29 -7 -40 -15z"/>
<path d="M2235 1130 c-3 -6 7 -15 22 -21 15 -6 41 -18 56 -26 18 -10 32 -12
38 -6 6 6 -6 16 -33 27 -24 10 -51 22 -60 27 -10 5 -19 5 -23 -1z"/>
<path d="M2000 1109 c7 -11 24 -25 38 -30 15 -6 44 -33 65 -60 21 -27 49 -54
62 -59 13 -5 28 -18 34 -29 13 -23 130 -103 145 -98 5 2 -12 19 -38 38 -26 19
-67 53 -90 75 -23 23 -50 44 -61 48 -11 3 -33 26 -48 51 -16 25 -35 45 -42 45
-7 0 -24 9 -38 20 -32 26 -41 25 -27 -1z"/>
<path d="M1945 1098 c9 -28 52 -76 76 -83 9 -3 29 -23 44 -45 15 -22 35 -42
44 -45 9 -3 25 -18 36 -35 11 -16 25 -30 30 -30 6 0 16 -9 23 -20 7 -11 21
-20 32 -20 10 0 26 -9 34 -21 8 -12 19 -18 25 -14 17 10 -20 54 -46 55 -13 0
-23 5 -23 10 0 6 -7 10 -15 10 -8 0 -15 4 -15 8 0 5 -27 35 -60 68 -33 32 -63
67 -66 76 -3 9 -15 20 -27 24 -30 9 -57 34 -68 62 -5 12 -13 22 -19 22 -7 0
-9 -9 -5 -22z"/>
<path d="M2562 1108 c3 -7 15 -14 29 -16 23 -2 23 -2 5 13 -24 18 -39 20 -34
3z"/>
<path d="M822 1055 c-33 -30 -64 -55 -70 -55 -13 0 -104 -88 -127 -123 -10
-15 -15 -31 -11 -35 4 -4 12 2 18 13 17 30 118 125 134 125 12 0 134 114 134
125 0 15 -26 -2 -78 -50z"/>
<path d="M524 1085 c-17 -13 -17 -14 -2 -15 9 0 20 5 23 11 11 17 0 20 -21 4z"/>
<path d="M1910 1078 c0 -7 24 -36 53 -65 28 -28 62 -63 74 -77 32 -37 49 -32
21 5 -24 33 -136 149 -144 149 -2 0 -4 -6 -4 -12z"/>
<path d="M885 1053 c-25 -40 -88 -99 -113 -107 -12 -4 -27 -17 -33 -29 -7 -12
-27 -41 -45 -64 -34 -42 -42 -63 -24 -63 6 0 10 6 10 13 0 7 16 28 35 47 19
19 35 38 35 43 0 12 40 47 53 47 14 0 95 90 103 113 10 30 -2 30 -21 0z"/>
<path d="M2650 1075 c0 -5 55 -35 65 -35 15 0 2 18 -20 28 -27 13 -45 15 -45
7z"/>
<path d="M330 1037 c-36 -17 -41 -22 -24 -25 12 -2 38 7 58 18 61 37 39 41
-34 7z"/>
<path d="M1874 1026 c1 -19 10 -44 19 -54 9 -10 17 -24 17 -30 0 -7 7 -12 15
-12 16 0 11 24 -10 50 -7 8 -15 24 -19 35 -6 16 -1 14 23 -9 17 -17 31 -35 31
-42 0 -7 14 -24 30 -37 17 -14 30 -32 30 -39 0 -8 20 -34 45 -58 31 -31 45
-39 45 -27 0 9 -16 31 -35 48 -19 18 -35 39 -35 46 0 8 -13 26 -30 40 -16 13
-30 30 -30 36 -1 18 -55 74 -79 82 -18 5 -20 2 -17 -29z"/>
<path d="M2385 1050 c3 -5 13 -10 21 -10 8 0 12 5 9 10 -3 6 -13 10 -21 10 -8
0 -12 -4 -9 -10z"/>
<path d="M897 999 c-32 -28 -57 -58 -57 -68 0 -16 -49 -61 -68 -61 -4 0 -14
-16 -21 -35 -7 -19 -16 -35 -21 -35 -11 0 -40 -53 -40 -71 0 -8 4 -8 15 1 8 7
15 18 15 24 0 7 11 23 25 36 14 13 25 31 25 39 0 9 16 25 36 36 20 10 41 32
48 50 13 29 42 61 95 103 14 11 20 22 14 25 -5 3 -35 -16 -66 -44z"/>
<path d="M1840 1036 c0 -9 5 -16 10 -16 6 0 10 4 10 9 0 6 -4 13 -10 16 -5 3
-10 -1 -10 -9z"/>
<path d="M2191 1025 c3 -12 14 -21 29 -23 14 -2 33 -11 42 -19 9 -8 22 -13 28
-11 19 6 -13 37 -43 42 -16 3 -36 11 -44 18 -13 10 -15 9 -12 -7z"/>
<path d="M2545 1030 c-3 -5 4 -14 15 -20 16 -8 20 -8 20 4 0 16 -27 29 -35 16z"/>
<path d="M958 1010 c-3 -10 -69 -88 -109 -129 -24 -25 -44 -61 -33 -61 8 0
101 103 154 173 17 21 18 27 7 27 -9 0 -17 -4 -19 -10z"/>
<path d="M1800 1010 c0 -5 5 -10 10 -10 6 0 10 5 10 10 0 6 -4 10 -10 10 -5 0
-10 -4 -10 -10z"/>
<path d="M1836 1002 c-3 -5 1 -15 9 -22 8 -7 18 -30 22 -52 3 -22 12 -42 19
-45 8 -3 14 -11 14 -18 0 -16 36 -62 44 -54 7 7 -34 89 -45 89 -5 0 -12 18
-15 40 -6 40 -37 79 -48 62z"/>
<path d="M987 975 c-15 -14 -27 -32 -27 -40 0 -8 -12 -27 -26 -42 -15 -15 -40
-57 -55 -91 -33 -72 -33 -72 -19 -72 6 0 15 12 21 28 19 52 51 107 70 120 10
7 19 21 19 31 0 9 14 30 30 46 29 28 38 45 22 45 -4 0 -20 -11 -35 -25z"/>
<path d="M454 956 c-16 -14 -24 -25 -19 -25 15 -1 61 37 54 44 -4 3 -20 -5
-35 -19z"/>
<path d="M591 949 c-17 -17 -29 -35 -26 -40 5 -8 75 53 75 66 0 13 -21 2 -49
-26z"/>
<path d="M1705 959 c16 -49 23 -65 38 -78 9 -7 19 -27 23 -44 3 -18 18 -46 33
-63 14 -17 31 -39 37 -50 7 -10 15 -16 19 -12 9 9 -23 76 -45 91 -9 7 -20 26
-24 42 -4 17 -18 41 -31 55 -13 14 -25 36 -27 49 -1 14 -9 26 -17 29 -10 3
-11 -2 -6 -19z"/>
<path d="M1780 965 c0 -19 17 -53 38 -78 9 -10 17 -28 19 -40 4 -25 59 -84 69
-74 4 3 -5 20 -20 37 -14 17 -26 39 -26 49 0 10 -13 33 -30 51 -16 18 -30 39
-30 46 0 7 -4 16 -10 19 -5 3 -10 -1 -10 -10z"/>
<path d="M2402 969 c2 -8 20 -15 39 -17 40 -4 30 13 -15 24 -22 5 -28 4 -24
-7z"/>
<path d="M1039 953 c-9 -10 -23 -36 -33 -58 -9 -22 -24 -51 -32 -65 -8 -14
-28 -53 -45 -86 -16 -34 -36 -67 -44 -74 -16 -13 -21 -45 -6 -36 14 9 81 113
81 126 0 6 11 26 25 44 14 18 25 40 25 50 0 9 12 35 26 57 27 43 29 73 3 42z"/>
<path d="M2300 941 c0 -5 6 -14 14 -20 11 -9 16 -9 21 0 4 6 1 15 -6 20 -18
11 -29 11 -29 0z"/>
<path d="M1112 919 c-7 -10 -12 -25 -12 -32 0 -7 -9 -20 -20 -30 -18 -15 -20
-15 -20 -1 0 9 9 29 21 45 17 24 18 29 5 29 -16 0 -46 -48 -46 -75 0 -9 -7
-30 -16 -46 -21 -42 -12 -61 11 -22 10 18 22 30 27 27 15 -10 -4 -77 -34 -118
-27 -38 -36 -66 -20 -66 11 1 62 86 73 122 5 18 6 41 3 51 -4 11 2 27 14 40
22 25 44 84 33 91 -4 3 -12 -4 -19 -15z"/>
<path d="M1528 903 c0 -21 -1 -45 0 -53 13 -132 33 -196 26 -80 -3 41 -5 94
-4 117 1 53 -19 69 -22 16z"/>
<path d="M1656 913 c4 -15 15 -37 24 -48 10 -11 23 -39 29 -62 7 -24 17 -43
23 -43 6 0 8 9 4 23 -3 12 -6 30 -6 39 0 9 -11 29 -24 45 -13 15 -25 37 -27
47 -2 11 -10 21 -17 24 -9 3 -11 -4 -6 -25z"/>
<path d="M2500 931 c0 -15 31 -42 41 -36 13 9 12 11 -16 29 -14 9 -25 12 -25
7z"/>
<path d="M1592 922 c-24 -16 -2 -232 24 -232 3 0 3 17 -1 38 -8 45 -15 203 -8
182 3 -8 12 -30 20 -47 9 -18 12 -41 8 -50 -7 -20 25 -183 37 -183 11 0 10 15
-7 85 -8 33 -12 70 -8 83 7 28 -26 132 -42 132 -5 0 -16 -4 -23 -8z"/>
<path d="M1197 913 c-4 -3 -7 -20 -7 -38 0 -17 -6 -37 -12 -43 -7 -7 -14 -32
-14 -56 -1 -24 -11 -64 -24 -88 -12 -25 -20 -55 -18 -69 4 -22 5 -23 12 -4 4
11 14 32 22 46 7 14 17 53 20 85 4 33 13 68 19 79 25 40 26 113 2 88z"/>
<path d="M1339 920 c-8 -72 -11 -103 -10 -143 1 -27 -6 -61 -14 -77 -8 -16
-15 -46 -14 -67 0 -36 1 -37 11 -13 17 41 39 141 33 151 -3 5 0 36 7 69 9 47
9 63 0 72 -7 7 -12 10 -13 8z"/>
<path d="M1437 838 c-3 -46 -9 -121 -12 -167 -3 -46 -7 -87 -8 -90 -1 -3 3 -7
8 -9 12 -3 21 63 30 226 4 76 3 122 -3 122 -5 0 -12 -37 -15 -82z"/>
<path d="M375 899 c-4 -6 -5 -13 -2 -16 7 -7 27 6 27 18 0 12 -17 12 -25 -2z"/>
<path d="M1143 876 c-16 -25 -22 -48 -21 -86 1 -45 3 -50 14 -35 7 10 11 30 7
46 -3 19 2 39 16 62 22 37 25 47 14 47 -5 0 -18 -16 -30 -34z"/>
<path d="M1227 851 c-4 -32 -14 -80 -22 -105 -15 -43 -17 -124 -3 -86 8 22 28
112 33 146 2 16 4 29 5 29 7 0 9 65 2 69 -5 3 -12 -21 -15 -53z"/>
<path d="M1280 905 c-1 -5 -4 -26 -6 -45 -11 -114 -16 -152 -29 -210 -7 -36
-17 -75 -21 -87 -10 -36 13 -27 25 8 6 18 11 45 11 61 0 16 4 37 10 47 5 10
12 48 14 83 3 35 8 71 11 79 3 8 1 28 -4 44 -5 17 -10 26 -11 20z"/>
<path d="M1484 873 c3 -21 6 -69 7 -108 l2 -70 9 63 c11 69 3 152 -14 152 -7
0 -8 -14 -4 -37z"/>
<path d="M1940 902 c0 -6 11 -24 25 -39 17 -20 24 -23 25 -12 0 8 -11 26 -25
39 -14 13 -25 18 -25 12z"/>
<path d="M2087 903 c-4 -6 0 -16 8 -23 21 -17 28 -8 11 15 -8 11 -15 14 -19 8z"/>
<path d="M513 887 c-22 -10 -31 -27 -15 -27 12 0 48 28 42 33 -3 2 -15 0 -27
-6z"/>
<path d="M1386 854 c-9 -68 -7 -114 4 -114 6 0 10 12 10 28 0 15 3 51 6 80 4
32 3 52 -3 52 -6 0 -13 -21 -17 -46z"/>
<path d="M2590 860 c0 -12 62 -41 70 -33 6 6 -42 42 -57 43 -7 0 -13 -5 -13
-10z"/>
<path d="M295 839 c-4 -5 -18 -14 -31 -19 -13 -5 -24 -15 -24 -22 0 -9 3 -9
12 0 7 7 19 12 28 12 9 0 25 9 35 20 16 17 16 20 2 20 -9 0 -19 -5 -22 -11z"/>
<path d="M2140 837 c0 -8 7 -20 15 -27 12 -10 15 -10 15 3 0 8 -7 20 -15 27
-12 10 -15 10 -15 -3z"/>
<path d="M540 794 c-40 -39 -34 -58 7 -20 15 14 31 26 34 26 4 0 9 7 13 15 9
25 -17 15 -54 -21z"/>
<path d="M802 793 c-7 -12 -12 -32 -11 -45 1 -20 3 -18 15 11 17 38 13 67 -4
34z"/>
<path d="M2392 788 c3 -7 12 -14 21 -16 12 -2 15 1 11 12 -7 19 -38 22 -32 4z"/>
<path d="M2004 745 c12 -24 25 -44 30 -45 12 0 -3 52 -21 73 -27 30 -31 19 -9
-28z"/>
<path d="M595 751 c-6 -11 9 -23 19 -14 9 9 7 23 -3 23 -6 0 -12 -4 -16 -9z"/>
<path d="M2120 746 c0 -16 28 -42 36 -33 7 6 -18 47 -28 47 -5 0 -8 -6 -8 -14z"/>
<path d="M2361 713 c38 -42 90 -83 104 -83 3 0 5 7 5 15 0 8 -13 21 -30 30
-16 8 -42 31 -57 50 -15 19 -36 35 -47 35 -15 0 -10 -10 25 -47z"/>
<path d="M1910 733 c0 -13 5 -23 10 -23 13 0 13 11 0 30 -8 12 -10 11 -10 -7z"/>
<path d="M1746 718 c4 -13 10 -25 15 -28 4 -3 10 -25 13 -49 2 -24 13 -53 24
-65 11 -11 22 -30 24 -41 4 -18 6 -18 12 -3 5 10 -5 43 -27 90 -19 40 -38 83
-42 96 -3 12 -11 22 -16 22 -6 0 -7 -9 -3 -22z"/>
<path d="M830 709 c0 -5 5 -7 10 -4 6 3 10 8 10 11 0 2 -4 4 -10 4 -5 0 -10
-5 -10 -11z"/>
<path d="M635 670 c-18 -20 -15 -38 4 -25 15 9 33 45 23 45 -5 0 -17 -9 -27
-20z"/>
<path d="M1488 678 c-7 -24 4 -138 13 -132 12 7 12 144 0 144 -5 0 -11 -6 -13
-12z"/>
<path d="M1937 665 c3 -14 10 -25 15 -25 13 0 6 43 -8 47 -7 2 -10 -6 -7 -22z"/>
<path d="M1617 648 c7 -39 22 -72 30 -64 7 7 -19 96 -29 96 -4 0 -5 -15 -1
-32z"/>
<path d="M1557 647 c-11 -29 -9 -43 4 -30 6 6 9 19 7 29 -3 18 -4 18 -11 1z"/>
<path d="M1365 629 c-4 -11 -4 -23 -2 -26 9 -8 27 7 27 22 0 23 -18 27 -25 4z"/>
<path d="M1860 636 c0 -17 14 -29 23 -20 8 8 -3 34 -14 34 -5 0 -9 -6 -9 -14z"/>
<path d="M2200 635 c0 -8 7 -15 16 -15 14 0 14 3 4 15 -7 8 -14 15 -16 15 -2
0 -4 -7 -4 -15z"/>
<path d="M1195 629 c-4 -6 -5 -12 -2 -15 2 -3 7 2 10 11 7 17 1 20 -8 4z"/>
<path d="M2056 618 c13 -41 54 -87 54 -60 0 10 -49 82 -56 82 -3 0 -2 -10 2
-22z"/>
<path d="M820 585 c0 -8 -9 -24 -20 -35 -24 -24 -25 -30 -4 -30 8 0 22 16 30
35 17 41 17 45 4 45 -5 0 -10 -7 -10 -15z"/>
<path d="M967 584 c-4 -4 -7 -17 -7 -28 1 -19 1 -20 11 -3 11 19 8 43 -4 31z"/>
<path d="M1712 560 c0 -14 2 -19 5 -12 2 6 2 18 0 25 -3 6 -5 1 -5 -13z"/>
<path d="M2532 559 c2 -7 10 -15 17 -17 8 -3 12 1 9 9 -2 7 -10 15 -17 17 -8
3 -12 -1 -9 -9z"/>
<path d="M1558 535 c-3 -14 -1 -28 3 -31 5 -3 9 9 9 25 0 38 -6 40 -12 6z"/>
<path d="M1287 536 c-4 -10 -5 -21 -2 -24 9 -9 17 6 13 25 -3 17 -4 17 -11 -1z"/>
<path d="M1654 507 c2 -27 9 -54 16 -60 9 -9 10 -3 4 28 -12 66 -25 87 -20 32z"/>
<path d="M1086 514 c-6 -24 -2 -44 8 -33 9 11 15 59 7 59 -5 0 -12 -12 -15
-26z"/>
<path d="M1409 478 c-2 -27 -1 -48 3 -48 13 0 18 35 9 65 -8 28 -8 28 -12 -17z"/>
<path d="M1488 484 c-5 -4 -8 -28 -8 -53 0 -32 3 -42 11 -34 5 5 9 29 7 53 -2
23 -6 38 -10 34z"/>
<path d="M1850 480 c0 -17 33 -80 43 -80 5 0 7 3 5 8 -2 4 -12 24 -21 45 -17
36 -27 47 -27 27z"/>
<path d="M1220 443 c0 -28 3 -34 10 -23 13 20 13 60 0 60 -5 0 -10 -17 -10
-37z"/>
<path d="M1050 411 c0 -25 6 -27 13 -6 4 8 2 17 -3 20 -6 4 -10 -3 -10 -14z"/>
<path d="M1686 371 c-4 -5 -2 -20 3 -33 9 -21 10 -21 10 10 1 32 -3 39 -13 23z"/>
<path d="M1390 305 c0 -36 4 -65 9 -65 13 0 23 67 16 101 -11 51 -25 31 -25
-36z"/>
<path d="M1202 336 c-17 -38 -15 -55 4 -28 8 12 14 30 12 39 -2 13 -6 10 -16
-11z"/>
<path d="M1491 285 c2 -25 6 -45 11 -45 4 0 8 20 8 45 0 25 -5 45 -10 45 -7 0
-10 -19 -9 -45z"/>
</g>
</svg>
